<svg width="150" height="28" viewBox="0 0 150 28" fill="none" xmlns="http://www.w3.org/2000/svg">
<path d="M41.3367 22C41.1767 22 41.0407 21.944 40.9287 21.832C40.8167 21.72 40.7607 21.584 40.7607 21.424V5.8C40.7607 5.624 40.8167 5.48 40.9287 5.368C41.0407 5.256 41.1767 5.2 41.3367 5.2H51.7527C51.9287 5.2 52.0727 5.256 52.1847 5.368C52.2967 5.48 52.3527 5.624 52.3527 5.8V7.48C52.3527 7.656 52.2967 7.8 52.1847 7.912C52.0727 8.008 51.9287 8.056 51.7527 8.056H44.0487V12.616H51.2727C51.4487 12.616 51.5927 12.672 51.7047 12.784C51.8167 12.896 51.8727 13.04 51.8727 13.216V14.896C51.8727 15.056 51.8167 15.192 51.7047 15.304C51.5927 15.416 51.4487 15.472 51.2727 15.472H44.0487V21.424C44.0487 21.584 43.9927 21.72 43.8807 21.832C43.7687 21.944 43.6247 22 43.4487 22H41.3367ZM57.9014 22.24C57.0694 22.24 56.3174 22.08 55.6454 21.76C54.9734 21.424 54.4374 20.984 54.0374 20.44C53.6534 19.88 53.4614 19.256 53.4614 18.568C53.4614 17.448 53.9094 16.56 54.8054 15.904C55.7174 15.232 56.9174 14.784 58.4054 14.56L61.6934 14.08V13.576C61.6934 12.904 61.5254 12.384 61.1894 12.016C60.8534 11.648 60.2774 11.464 59.4614 11.464C58.8854 11.464 58.4134 11.584 58.0454 11.824C57.6934 12.048 57.4294 12.352 57.2534 12.736C57.1254 12.944 56.9414 13.048 56.7014 13.048H54.8054C54.6294 13.048 54.4934 13 54.3974 12.904C54.3174 12.808 54.2774 12.68 54.2774 12.52C54.2934 12.264 54.3974 11.952 54.5894 11.584C54.7814 11.216 55.0854 10.864 55.5014 10.528C55.9174 10.176 56.4534 9.88 57.1094 9.64C57.7654 9.4 58.5574 9.28 59.4854 9.28C60.4934 9.28 61.3414 9.408 62.0294 9.664C62.7334 9.904 63.2934 10.232 63.7094 10.648C64.1254 11.064 64.4294 11.552 64.6214 12.112C64.8134 12.672 64.9094 13.264 64.9094 13.888V21.424C64.9094 21.584 64.8534 21.72 64.7414 21.832C64.6294 21.944 64.4934 22 64.3334 22H62.3894C62.2134 22 62.0694 21.944 61.9574 21.832C61.8614 21.72 61.8134 21.584 61.8134 21.424V20.488C61.6054 20.792 61.3254 21.08 60.9734 21.352C60.6214 21.608 60.1894 21.824 59.6774 22C59.1814 22.16 58.5894 22.24 57.9014 22.24ZM58.7174 19.96C59.2774 19.96 59.7814 19.84 60.2294 19.6C60.6934 19.36 61.0534 18.992 61.3094 18.496C61.5814 17.984 61.7174 17.344 61.7174 16.576V16.072L59.3174 16.456C58.3734 16.6 57.6694 16.832 57.2054 17.152C56.7414 17.472 56.5094 17.864 56.5094 18.328C56.5094 18.68 56.6134 18.984 56.8214 19.24C57.0454 19.48 57.3254 19.664 57.6614 19.792C57.9974 19.904 58.3494 19.96 58.7174 19.96ZM68.5883 22C68.4283 22 68.2923 21.944 68.1803 21.832C68.0683 21.72 68.0123 21.584 68.0123 21.424V5.536C68.0123 5.376 68.0683 5.24 68.1803 5.128C68.2923 5.016 68.4283 4.96 68.5883 4.96H70.5803C70.7403 4.96 70.8763 5.016 70.9883 5.128C71.1003 5.24 71.1563 5.376 71.1563 5.536V21.424C71.1563 21.584 71.1003 21.72 70.9883 21.832C70.8763 21.944 70.7403 22 70.5803 22H68.5883ZM79.7399 22.24C78.5879 22.24 77.5719 22.024 76.6919 21.592C75.8279 21.16 75.1479 20.536 74.6519 19.72C74.1719 18.888 73.9079 17.888 73.8599 16.72C73.8439 16.48 73.8359 16.168 73.8359 15.784C73.8359 15.384 73.8439 15.056 73.8599 14.8C73.9079 13.632 74.1719 12.64 74.6519 11.824C75.1479 10.992 75.8279 10.36 76.6919 9.928C77.5719 9.496 78.5879 9.28 79.7399 9.28C80.7639 9.28 81.6359 9.424 82.3559 9.712C83.0759 10 83.6679 10.36 84.1319 10.792C84.5959 11.224 84.9399 11.68 85.1639 12.16C85.4039 12.624 85.5319 13.048 85.5479 13.432C85.5639 13.608 85.5079 13.752 85.3799 13.864C85.2679 13.96 85.1319 14.008 84.9719 14.008H82.8599C82.6999 14.008 82.5719 13.968 82.4759 13.888C82.3959 13.808 82.3159 13.688 82.2359 13.528C81.9959 12.888 81.6759 12.44 81.2759 12.184C80.8919 11.912 80.3959 11.776 79.7879 11.776C78.9879 11.776 78.3479 12.032 77.8679 12.544C77.4039 13.04 77.1559 13.832 77.1239 14.92C77.0919 15.528 77.0919 16.088 77.1239 16.6C77.1559 17.704 77.4039 18.504 77.8679 19C78.3479 19.496 78.9879 19.744 79.7879 19.744C80.4119 19.744 80.9159 19.616 81.2999 19.36C81.6839 19.088 81.9959 18.632 82.2359 17.992C82.3159 17.832 82.3959 17.712 82.4759 17.632C82.5719 17.552 82.6999 17.512 82.8599 17.512H84.9719C85.1319 17.512 85.2679 17.568 85.3799 17.68C85.5079 17.776 85.5639 17.912 85.5479 18.088C85.5319 18.376 85.4519 18.704 85.3079 19.072C85.1799 19.424 84.9639 19.792 84.6599 20.176C84.3719 20.544 84.0039 20.888 83.5559 21.208C83.1079 21.512 82.5639 21.76 81.9239 21.952C81.2999 22.144 80.5719 22.24 79.7399 22.24ZM93.5708 22.24C92.2908 22.24 91.2108 22.016 90.3308 21.568C89.4668 21.12 88.8028 20.488 88.3388 19.672C87.8908 18.856 87.6348 17.904 87.5708 16.816C87.5548 16.528 87.5468 16.176 87.5468 15.76C87.5468 15.344 87.5548 14.992 87.5708 14.704C87.6348 13.6 87.8988 12.648 88.3628 11.848C88.8428 11.032 89.5148 10.4 90.3788 9.952C91.2588 9.504 92.3228 9.28 93.5708 9.28C94.8188 9.28 95.8748 9.504 96.7388 9.952C97.6188 10.4 98.2908 11.032 98.7548 11.848C99.2348 12.648 99.5068 13.6 99.5708 14.704C99.5868 14.992 99.5948 15.344 99.5948 15.76C99.5948 16.176 99.5868 16.528 99.5708 16.816C99.5068 17.904 99.2428 18.856 98.7788 19.672C98.3308 20.488 97.6668 21.12 96.7868 21.568C95.9228 22.016 94.8508 22.24 93.5708 22.24ZM93.5708 19.864C94.4188 19.864 95.0748 19.6 95.5388 19.072C96.0028 18.528 96.2588 17.736 96.3068 16.696C96.3228 16.456 96.3308 16.144 96.3308 15.76C96.3308 15.376 96.3228 15.064 96.3068 14.824C96.2588 13.8 96.0028 13.016 95.5388 12.472C95.0748 11.928 94.4188 11.656 93.5708 11.656C92.7228 11.656 92.0668 11.928 91.6028 12.472C91.1388 13.016 90.8828 13.8 90.8348 14.824C90.8188 15.064 90.8108 15.376 90.8108 15.76C90.8108 16.144 90.8188 16.456 90.8348 16.696C90.8828 17.736 91.1388 18.528 91.6028 19.072C92.0668 19.6 92.7228 19.864 93.5708 19.864ZM102.83 22C102.67 22 102.534 21.944 102.422 21.832C102.31 21.72 102.254 21.584 102.254 21.424V10.096C102.254 9.936 102.31 9.8 102.422 9.688C102.534 9.576 102.67 9.52 102.83 9.52H104.798C104.958 9.52 105.094 9.576 105.206 9.688C105.318 9.8 105.374 9.936 105.374 10.096V11.08C105.79 10.568 106.318 10.144 106.958 9.808C107.614 9.456 108.422 9.28 109.382 9.28C110.358 9.28 111.206 9.504 111.926 9.952C112.646 10.384 113.198 11 113.582 11.8C113.982 12.6 114.182 13.56 114.182 14.68V21.424C114.182 21.584 114.126 21.72 114.014 21.832C113.902 21.944 113.766 22 113.606 22H111.494C111.334 22 111.198 21.944 111.086 21.832C110.974 21.72 110.918 21.584 110.918 21.424V14.824C110.918 13.896 110.686 13.168 110.222 12.64C109.774 12.112 109.118 11.848 108.254 11.848C107.422 11.848 106.758 12.112 106.262 12.64C105.766 13.168 105.518 13.896 105.518 14.824V21.424C105.518 21.584 105.462 21.72 105.35 21.832C105.238 21.944 105.102 22 104.942 22H102.83ZM121.958 22.24C120.998 22.24 120.174 22.128 119.486 21.904C118.814 21.68 118.262 21.4 117.83 21.064C117.398 20.728 117.078 20.392 116.87 20.056C116.662 19.72 116.55 19.44 116.534 19.216C116.518 19.04 116.566 18.904 116.678 18.808C116.806 18.696 116.942 18.64 117.086 18.64H118.982C119.046 18.64 119.102 18.648 119.15 18.664C119.198 18.68 119.262 18.728 119.342 18.808C119.55 18.984 119.766 19.168 119.99 19.36C120.23 19.552 120.51 19.72 120.83 19.864C121.15 19.992 121.55 20.056 122.03 20.056C122.654 20.056 123.174 19.936 123.59 19.696C124.022 19.44 124.238 19.08 124.238 18.616C124.238 18.28 124.142 18.008 123.95 17.8C123.774 17.592 123.438 17.408 122.942 17.248C122.446 17.072 121.742 16.888 120.83 16.696C119.934 16.488 119.19 16.224 118.598 15.904C118.006 15.584 117.566 15.184 117.278 14.704C116.99 14.224 116.846 13.664 116.846 13.024C116.846 12.4 117.03 11.808 117.398 11.248C117.782 10.672 118.342 10.2 119.078 9.832C119.83 9.464 120.758 9.28 121.862 9.28C122.726 9.28 123.478 9.392 124.118 9.616C124.758 9.824 125.286 10.088 125.702 10.408C126.134 10.728 126.462 11.056 126.686 11.392C126.91 11.712 127.03 11.992 127.046 12.232C127.062 12.408 127.014 12.552 126.902 12.664C126.79 12.76 126.662 12.808 126.518 12.808H124.742C124.662 12.808 124.59 12.792 124.526 12.76C124.462 12.728 124.398 12.688 124.334 12.64C124.158 12.48 123.966 12.312 123.758 12.136C123.55 11.96 123.294 11.808 122.99 11.68C122.702 11.536 122.318 11.464 121.838 11.464C121.23 11.464 120.766 11.6 120.446 11.872C120.126 12.128 119.966 12.456 119.966 12.856C119.966 13.128 120.038 13.368 120.182 13.576C120.342 13.768 120.654 13.952 121.118 14.128C121.582 14.304 122.286 14.488 123.23 14.68C124.302 14.872 125.15 15.16 125.774 15.544C126.414 15.912 126.862 16.344 127.118 16.84C127.39 17.32 127.526 17.856 127.526 18.448C127.526 19.168 127.31 19.816 126.878 20.392C126.462 20.968 125.838 21.424 125.006 21.76C124.19 22.08 123.174 22.24 121.958 22.24Z" fill="black"/>
<path d="M12.4071 21.3022L14.9226 16.1917L20.9681 16.1867L23.0672 17.1527L24.4748 17.1231L26.7572 19.1736L17.9705 25.4717C17.9705 25.4717 16.6841 23.6974 14.201 23.458C11.9914 23.2449 7.30376 24.1729 5.979 24.5106C3.34148 25.1831 4.4858 27.7372 4.67148 28C1.45619 26.2747 0.301235 25.3728 0.0324006 23.8376C-0.236434 22.3024 1.25583 21.6244 1.26196 21.3769C1.28772 20.9232 1.3832 20.5836 1.5677 20.2011C6.85013 21.1544 8.84404 21.1922 12.4071 21.3022ZM7.69823 18.8914L11.6235 15.7762L11.3043 18.9817L9.519 19.4896L7.69823 18.8914ZM14.9287 14.1154V13.0768L18.7417 10.8128C22.5872 10.2065 26.2486 9.83473 30 9.34826L26.2171 15.741L23.1289 15.7137L14.9287 14.1154ZM1.69801 19.5691C6.03648 15.8733 6.93834 13.1118 7.89042 11.4259C8.3905 10.5203 13.0043 7.88172 20.1779 3.17067V5.52734L29.9644 2L28.0042 7.82995C25.1922 9.22921 21.4822 9.03191 20.1007 9.29395C18.1048 9.50449 10.3509 12.3708 9.51503 14.0846C6.64092 18.792 1.69801 19.5691 1.69801 19.5691Z" fill="#85B839"/>
</svg>
