<svg width="151" height="27" viewBox="0 0 151 27" fill="none" xmlns="http://www.w3.org/2000/svg">
<path d="M42.3367 22C42.1767 22 42.0407 21.944 41.9287 21.832C41.8167 21.72 41.7607 21.584 41.7607 21.424V5.8C41.7607 5.624 41.8167 5.48 41.9287 5.368C42.0407 5.256 42.1767 5.2 42.3367 5.2H52.7527C52.9287 5.2 53.0727 5.256 53.1847 5.368C53.2967 5.48 53.3527 5.624 53.3527 5.8V7.48C53.3527 7.656 53.2967 7.8 53.1847 7.912C53.0727 8.008 52.9287 8.056 52.7527 8.056H45.0487V12.616H52.2727C52.4487 12.616 52.5927 12.672 52.7047 12.784C52.8167 12.896 52.8727 13.04 52.8727 13.216V14.896C52.8727 15.056 52.8167 15.192 52.7047 15.304C52.5927 15.416 52.4487 15.472 52.2727 15.472H45.0487V21.424C45.0487 21.584 44.9927 21.72 44.8807 21.832C44.7687 21.944 44.6247 22 44.4487 22H42.3367ZM58.9014 22.24C58.0694 22.24 57.3174 22.08 56.6454 21.76C55.9734 21.424 55.4374 20.984 55.0374 20.44C54.6534 19.88 54.4614 19.256 54.4614 18.568C54.4614 17.448 54.9094 16.56 55.8054 15.904C56.7174 15.232 57.9174 14.784 59.4054 14.56L62.6934 14.08V13.576C62.6934 12.904 62.5254 12.384 62.1894 12.016C61.8534 11.648 61.2774 11.464 60.4614 11.464C59.8854 11.464 59.4134 11.584 59.0454 11.824C58.6934 12.048 58.4294 12.352 58.2534 12.736C58.1254 12.944 57.9414 13.048 57.7014 13.048H55.8054C55.6294 13.048 55.4934 13 55.3974 12.904C55.3174 12.808 55.2774 12.68 55.2774 12.52C55.2934 12.264 55.3974 11.952 55.5894 11.584C55.7814 11.216 56.0854 10.864 56.5014 10.528C56.9174 10.176 57.4534 9.88 58.1094 9.64C58.7654 9.4 59.5574 9.28 60.4854 9.28C61.4934 9.28 62.3414 9.408 63.0294 9.664C63.7334 9.904 64.2934 10.232 64.7094 10.648C65.1254 11.064 65.4294 11.552 65.6214 12.112C65.8134 12.672 65.9094 13.264 65.9094 13.888V21.424C65.9094 21.584 65.8534 21.72 65.7414 21.832C65.6294 21.944 65.4934 22 65.3334 22H63.3894C63.2134 22 63.0694 21.944 62.9574 21.832C62.8614 21.72 62.8134 21.584 62.8134 21.424V20.488C62.6054 20.792 62.3254 21.08 61.9734 21.352C61.6214 21.608 61.1894 21.824 60.6774 22C60.1814 22.16 59.5894 22.24 58.9014 22.24ZM59.7174 19.96C60.2774 19.96 60.7814 19.84 61.2294 19.6C61.6934 19.36 62.0534 18.992 62.3094 18.496C62.5814 17.984 62.7174 17.344 62.7174 16.576V16.072L60.3174 16.456C59.3734 16.6 58.6694 16.832 58.2054 17.152C57.7414 17.472 57.5094 17.864 57.5094 18.328C57.5094 18.68 57.6134 18.984 57.8214 19.24C58.0454 19.48 58.3254 19.664 58.6614 19.792C58.9974 19.904 59.3494 19.96 59.7174 19.96ZM69.5883 22C69.4283 22 69.2923 21.944 69.1803 21.832C69.0683 21.72 69.0123 21.584 69.0123 21.424V5.536C69.0123 5.376 69.0683 5.24 69.1803 5.128C69.2923 5.016 69.4283 4.96 69.5883 4.96H71.5803C71.7403 4.96 71.8763 5.016 71.9883 5.128C72.1003 5.24 72.1563 5.376 72.1563 5.536V21.424C72.1563 21.584 72.1003 21.72 71.9883 21.832C71.8763 21.944 71.7403 22 71.5803 22H69.5883ZM80.7399 22.24C79.5879 22.24 78.5719 22.024 77.6919 21.592C76.8279 21.16 76.1479 20.536 75.6519 19.72C75.1719 18.888 74.9079 17.888 74.8599 16.72C74.8439 16.48 74.8359 16.168 74.8359 15.784C74.8359 15.384 74.8439 15.056 74.8599 14.8C74.9079 13.632 75.1719 12.64 75.6519 11.824C76.1479 10.992 76.8279 10.36 77.6919 9.928C78.5719 9.496 79.5879 9.28 80.7399 9.28C81.7639 9.28 82.6359 9.424 83.3559 9.712C84.0759 10 84.6679 10.36 85.1319 10.792C85.5959 11.224 85.9399 11.68 86.1639 12.16C86.4039 12.624 86.5319 13.048 86.5479 13.432C86.5639 13.608 86.5079 13.752 86.3799 13.864C86.2679 13.96 86.1319 14.008 85.9719 14.008H83.8599C83.6999 14.008 83.5719 13.968 83.4759 13.888C83.3959 13.808 83.3159 13.688 83.2359 13.528C82.9959 12.888 82.6759 12.44 82.2759 12.184C81.8919 11.912 81.3959 11.776 80.7879 11.776C79.9879 11.776 79.3479 12.032 78.8679 12.544C78.4039 13.04 78.1559 13.832 78.1239 14.92C78.0919 15.528 78.0919 16.088 78.1239 16.6C78.1559 17.704 78.4039 18.504 78.8679 19C79.3479 19.496 79.9879 19.744 80.7879 19.744C81.4119 19.744 81.9159 19.616 82.2999 19.36C82.6839 19.088 82.9959 18.632 83.2359 17.992C83.3159 17.832 83.3959 17.712 83.4759 17.632C83.5719 17.552 83.6999 17.512 83.8599 17.512H85.9719C86.1319 17.512 86.2679 17.568 86.3799 17.68C86.5079 17.776 86.5639 17.912 86.5479 18.088C86.5319 18.376 86.4519 18.704 86.3079 19.072C86.1799 19.424 85.9639 19.792 85.6599 20.176C85.3719 20.544 85.0039 20.888 84.5559 21.208C84.1079 21.512 83.5639 21.76 82.9239 21.952C82.2999 22.144 81.5719 22.24 80.7399 22.24ZM94.5708 22.24C93.2908 22.24 92.2108 22.016 91.3308 21.568C90.4668 21.12 89.8028 20.488 89.3388 19.672C88.8908 18.856 88.6348 17.904 88.5708 16.816C88.5548 16.528 88.5468 16.176 88.5468 15.76C88.5468 15.344 88.5548 14.992 88.5708 14.704C88.6348 13.6 88.8988 12.648 89.3628 11.848C89.8428 11.032 90.5148 10.4 91.3788 9.952C92.2588 9.504 93.3228 9.28 94.5708 9.28C95.8188 9.28 96.8748 9.504 97.7388 9.952C98.6188 10.4 99.2908 11.032 99.7548 11.848C100.235 12.648 100.507 13.6 100.571 14.704C100.587 14.992 100.595 15.344 100.595 15.76C100.595 16.176 100.587 16.528 100.571 16.816C100.507 17.904 100.243 18.856 99.7788 19.672C99.3308 20.488 98.6668 21.12 97.7868 21.568C96.9228 22.016 95.8508 22.24 94.5708 22.24ZM94.5708 19.864C95.4188 19.864 96.0748 19.6 96.5388 19.072C97.0028 18.528 97.2588 17.736 97.3068 16.696C97.3228 16.456 97.3308 16.144 97.3308 15.76C97.3308 15.376 97.3228 15.064 97.3068 14.824C97.2588 13.8 97.0028 13.016 96.5388 12.472C96.0748 11.928 95.4188 11.656 94.5708 11.656C93.7228 11.656 93.0668 11.928 92.6028 12.472C92.1388 13.016 91.8828 13.8 91.8348 14.824C91.8188 15.064 91.8108 15.376 91.8108 15.76C91.8108 16.144 91.8188 16.456 91.8348 16.696C91.8828 17.736 92.1388 18.528 92.6028 19.072C93.0668 19.6 93.7228 19.864 94.5708 19.864ZM103.83 22C103.67 22 103.534 21.944 103.422 21.832C103.31 21.72 103.254 21.584 103.254 21.424V10.096C103.254 9.936 103.31 9.8 103.422 9.688C103.534 9.576 103.67 9.52 103.83 9.52H105.798C105.958 9.52 106.094 9.576 106.206 9.688C106.318 9.8 106.374 9.936 106.374 10.096V11.08C106.79 10.568 107.318 10.144 107.958 9.808C108.614 9.456 109.422 9.28 110.382 9.28C111.358 9.28 112.206 9.504 112.926 9.952C113.646 10.384 114.198 11 114.582 11.8C114.982 12.6 115.182 13.56 115.182 14.68V21.424C115.182 21.584 115.126 21.72 115.014 21.832C114.902 21.944 114.766 22 114.606 22H112.494C112.334 22 112.198 21.944 112.086 21.832C111.974 21.72 111.918 21.584 111.918 21.424V14.824C111.918 13.896 111.686 13.168 111.222 12.64C110.774 12.112 110.118 11.848 109.254 11.848C108.422 11.848 107.758 12.112 107.262 12.64C106.766 13.168 106.518 13.896 106.518 14.824V21.424C106.518 21.584 106.462 21.72 106.35 21.832C106.238 21.944 106.102 22 105.942 22H103.83ZM122.958 22.24C121.998 22.24 121.174 22.128 120.486 21.904C119.814 21.68 119.262 21.4 118.83 21.064C118.398 20.728 118.078 20.392 117.87 20.056C117.662 19.72 117.55 19.44 117.534 19.216C117.518 19.04 117.566 18.904 117.678 18.808C117.806 18.696 117.942 18.64 118.086 18.64H119.982C120.046 18.64 120.102 18.648 120.15 18.664C120.198 18.68 120.262 18.728 120.342 18.808C120.55 18.984 120.766 19.168 120.99 19.36C121.23 19.552 121.51 19.72 121.83 19.864C122.15 19.992 122.55 20.056 123.03 20.056C123.654 20.056 124.174 19.936 124.59 19.696C125.022 19.44 125.238 19.08 125.238 18.616C125.238 18.28 125.142 18.008 124.95 17.8C124.774 17.592 124.438 17.408 123.942 17.248C123.446 17.072 122.742 16.888 121.83 16.696C120.934 16.488 120.19 16.224 119.598 15.904C119.006 15.584 118.566 15.184 118.278 14.704C117.99 14.224 117.846 13.664 117.846 13.024C117.846 12.4 118.03 11.808 118.398 11.248C118.782 10.672 119.342 10.2 120.078 9.832C120.83 9.464 121.758 9.28 122.862 9.28C123.726 9.28 124.478 9.392 125.118 9.616C125.758 9.824 126.286 10.088 126.702 10.408C127.134 10.728 127.462 11.056 127.686 11.392C127.91 11.712 128.03 11.992 128.046 12.232C128.062 12.408 128.014 12.552 127.902 12.664C127.79 12.76 127.662 12.808 127.518 12.808H125.742C125.662 12.808 125.59 12.792 125.526 12.76C125.462 12.728 125.398 12.688 125.334 12.64C125.158 12.48 124.966 12.312 124.758 12.136C124.55 11.96 124.294 11.808 123.99 11.68C123.702 11.536 123.318 11.464 122.838 11.464C122.23 11.464 121.766 11.6 121.446 11.872C121.126 12.128 120.966 12.456 120.966 12.856C120.966 13.128 121.038 13.368 121.182 13.576C121.342 13.768 121.654 13.952 122.118 14.128C122.582 14.304 123.286 14.488 124.23 14.68C125.302 14.872 126.15 15.16 126.774 15.544C127.414 15.912 127.862 16.344 128.118 16.84C128.39 17.32 128.526 17.856 128.526 18.448C128.526 19.168 128.31 19.816 127.878 20.392C127.462 20.968 126.838 21.424 126.006 21.76C125.19 22.08 124.174 22.24 122.958 22.24Z" fill="black"/>
<path d="M12.4071 19.6221L14.9226 14.6917L20.9681 14.6868L23.0672 15.6188L24.4748 15.5902L26.7572 17.5685L17.9705 23.6448C17.9705 23.6448 16.6841 21.933 14.201 21.702C11.9914 21.4964 7.30376 22.3917 5.979 22.7176C3.34148 23.3664 4.4858 25.8305 4.67148 26.084C1.45619 24.4195 0.301235 23.5494 0.0324006 22.0683C-0.236434 20.5872 1.25583 19.933 1.26196 19.6942C1.28772 19.2565 1.3832 18.9289 1.5677 18.5598C6.85013 19.4795 8.84404 19.516 12.4071 19.6221ZM7.69823 17.2963L11.6235 14.2908L11.3043 17.3834L9.519 17.8734L7.69823 17.2963ZM14.9287 12.6885V11.6864L18.7417 9.50216C22.5872 8.91723 26.2486 8.55855 30 8.08922L26.2171 14.2568L23.1289 14.2304L14.9287 12.6885ZM1.69801 17.9501C6.03648 14.3844 6.93834 11.7202 7.89042 10.0937C8.3905 9.21996 13.0043 6.67433 20.1779 2.1292V4.40286L29.9644 0.999756L28.0042 6.62438C25.1922 7.97436 21.4822 7.784 20.1007 8.03682C18.1048 8.23994 10.3509 11.0053 9.51503 12.6587C6.64092 17.2003 1.69801 17.9501 1.69801 17.9501Z" fill="#85B839"/>
</svg>
